PathFileType	4	(X/Y/Z)	C:\Users\Biomechanik\SynologyDrive\AlexP\Athlete_03\Athlete_3_25_03_31\Walking_08\marker_experimental.trc
DataRate	CameraRate	NumFrames	NumMarkers	Units	OrigDataRate	OrigDataStartFrame	OrigNumFrames
200.000000	200.000000	4	53	mm	200.000000	27	222
Frame#	Time	GLAB			RFHD			LFHD			C7			T6			SPINMOL			SPINM2			SPINM3			T12			BELTOL			BELT2			BELT3			SACROL			SACR2			SACR3			LTHOL			LTH2			LTH3			LSHAOL			LSHA2			LSHA3			LHEE			LTOE			LM5			RTHOL			RTH2			RTH3			RSHAOL			RSHA2			RSHA3			RHEE			RTOE			RM5			STRN			XIPH			LACR			LUAOL			LUA2			LUA3			LLAOL			LLA2			LLA3			LWRR			LWRU			RACR			RUAOL			RUA2			RUA3			RLAOL			RLA2			RLA3			RWRR			RWRU			
		X1	Y1	Z1	X2	Y2	Z2	X3	Y3	Z3	X4	Y4	Z4	X5	Y5	Z5	X6	Y6	Z6	X7	Y7	Z7	X8	Y8	Z8	X9	Y9	Z9	X10	Y10	Z10	X11	Y11	Z11	X12	Y12	Z12	X13	Y13	Z13	X14	Y14	Z14	X15	Y15	Z15	X16	Y16	Z16	X17	Y17	Z17	X18	Y18	Z18	X19	Y19	Z19	X20	Y20	Z20	X21	Y21	Z21	X22	Y22	Z22	X23	Y23	Z23	X24	Y24	Z24	X25	Y25	Z25	X26	Y26	Z26	X27	Y27	Z27	X28	Y28	Z28	X29	Y29	Z29	X30	Y30	Z30	X31	Y31	Z31	X32	Y32	Z32	X33	Y33	Z33	X34	Y34	Z34	X35	Y35	Z35	X36	Y36	Z36	X37	Y37	Z37	X38	Y38	Z38	X39	Y39	Z39	X40	Y40	Z40	X41	Y41	Z41	X42	Y42	Z42	X43	Y43	Z43	X44	Y44	Z44	X45	Y45	Z45	X46	Y46	Z46	X47	Y47	Z47	X48	Y48	Z48	X49	Y49	Z49	X50	Y50	Z50	X51	Y51	Z51	X52	Y52	Z52	X53	Y53	Z53	

28	0.135	-296.114471435547	1583.9716796875	237.509780883789	-347.0820312500002	1601.52197265625	303.8066711425781	-342.4738769531252	1608.06201171875	166.5966491699218	-512.1999511718751	1415.898681640625	218.0577239990234	-571.9475708007814	1250.94580078125	205.9019470214843	-581.8251342773439	1211.849243164062	183.5276031494139	-584.8308715820314	1203.178100585938	233.2007293701171	-579.0444946289064	1147.199340820312	197.5370330810546	-558.0490722656251	1080.162231445312	197.6021270751952	-588.0127563476564	1046.146484375	182.0436553955077	-586.1912231445314	1043.764404296875	232.4546966552733	-593.7700805664064	984.0037231445312	203.3805236816405	-582.6757812500001	930.7484741210938	186.7084655761718	-574.5325927734376	929.117919921875	237.4410858154296	-590.077880859375	869.6763916015625	212.3769378662108	-535.928955078125	659.7390747070312	10.19010734558096	-583.753173828125	610.9229125976562	52.32141113281239	-545.1998291015625	600.8599243164062	22.97555923461904	-671.328125	376.4217529296874	13.28365039825427	-745.4593505859375	364.3360290527343	39.25984573364244	-709.6216430664062	330.1322937011718	27.22085571289049	-859.2590942382812	255.6683502197265	133.1475830078123	-808.3906860351562	53.99217224121089	134.2621002197264	-847.984619140625	75.86449432373041	37.51562881469711	-399.425750732422	661.4580688476562	387.1717529296874	-324.9065856933595	632.3695068359375	388.3724975585937	-368.7279052734376	609.7953491210938	376.6090393066406	-315.0174255371094	329.3477783203125	376.2000122070312	-270.9173583984376	264.6347961425781	368.9938049316406	-319.9054260253907	268.9667663574219	362.8359069824218	-332.4964904785157	55.59672546386717	257.8099670410156	-118.4696960449219	50.9594497680664	255.4080657958984	-166.1800537109376	36.44612503051757	357.8593749999999	-341.6072082519532	1312.970825195312	213.9662933349609	-327.9224853515626	1168.513427734375	205.3936157226562	-431.8295898437501	1387.498657226562	42.96578598022453	-426.2336730957032	1240.9052734375	-64.94815063476571	-433.9291992187501	1179.859619140625	-88.07587432861337	-388.8247985839844	1186.867309570312	-65.98525238037116	-342.3544616699219	992.2114868164062	-121.4117813110352	-344.6293945312501	915.1187133789062	-104.0640487670899	-305.3958129882813	943.3934936523438	-117.5757751464844	-235.4852905273438	865.8052368164062	-111.1046752929688	-202.3217773437501	897.592041015625	-47.34810256958011	-425.9913024902345	1357.84423828125	385.4146728515624	-456.5091247558595	1205.26318359375	475.9984130859374	-439.4967346191408	1141.289306640625	480.4522094726562	-488.0560302734377	1149.97412109375	493.7395629882811	-482.8536987304689	930.0552368164062	517.7580566406249	-436.4484863281252	872.5310668945312	548.2022094726561	-477.7993469238283	867.0170288085938	521.1325073242186	-450.0085449218752	782.523193359375	537.6043090820311	-409.9997558593752	764.6443481445312	468.7250061035156	
29	0.14	-288.8755798339845	1584.822143554688	238.4883880615234	-339.7769470214845	1602.381958007812	304.8258056640624	-335.2402954101564	1608.97509765625	167.6135711669921	-505.0581665039064	1416.755126953125	218.9989013671874	-564.6737670898439	1251.735473632812	206.7664794921874	-574.5191040039064	1212.684448242188	184.3546752929686	-577.4764404296876	1203.958740234375	234.0230407714843	-571.7031250000001	1148.019165039062	198.2950134277343	-550.7008056640626	1081.026611328125	198.3621520996093	-580.6371459960939	1047.068481445312	182.2838745117186	-578.9998168945314	1044.745971679688	232.7111968994139	-586.4957275390626	984.951904296875	203.6765747070311	-575.1732788085939	931.2052612304688	187.2530822753905	-567.1635742187501	929.8155517578125	238.0224761962889	-582.5740356445312	870.2356567382812	213.1715545654296	-524.8964233398438	658.8028564453125	10.2595796585082	-571.951904296875	609.0858764648438	52.16120910644521	-533.3880004882812	599.7650146484375	22.60517501831045	-658.1165771484375	378.1121520996093	12.28035640716541	-732.2213134765625	367.1559753417968	38.88420486450182	-697.0430297851562	332.4078063964843	26.42437362670886	-846.3558349609375	261.6331481933593	133.1117553710936	-802.2786865234375	56.89675903320308	133.8666076660155	-842.3014526367188	81.02528381347651	38.01682281494125	-392.6653747558595	662.1318359375	388.0842895507812	-318.6168518066407	632.5253295898438	388.6446533203124	-362.3701171875001	610.3226318359375	377.3212890624999	-311.0949401855469	329.5867004394531	376.4663696289062	-267.6912231445313	264.3942565917969	368.7890319824218	-316.7473144531251	269.2380065917969	363.0552978515624	-332.2233581542969	55.90203857421873	257.5711364746093	-117.8974075317383	49.98288345336913	255.1554718017578	-166.0861968994141	36.55329895019531	357.6978454589843	-334.338348388672	1314.094848632812	214.8899841308593	-320.6336364746095	1169.584594726562	206.3175048828124	-424.6501464843751	1388.526489257812	43.90490341186516	-419.4944152832032	1241.822998046875	-63.99513626098641	-427.5068969726563	1180.828247070312	-87.16069030761727	-382.3826904296876	1187.5419921875	-64.9399719238282	-337.8179626464844	992.2402954101562	-120.4697036743165	-341.1159667968751	915.1904296875	-103.2506103515626	-301.5389709472657	942.904541015625	-116.8630065917969	-232.6867828369141	864.3226928710938	-110.8160552978516	-198.9373474121094	895.36474609375	-47.02238464355472	-418.6666259765626	1358.932861328125	386.2960205078124	-448.2455139160158	1206.177124023438	476.9788513183593	-430.8166809082033	1142.261840820312	481.0858764648437	-479.359832763672	1150.690551757812	494.7899780273436	-473.1072998046877	930.729736328125	518.3062133789061	-426.1931762695314	873.3743896484375	548.3651123046874	-467.7296447753908	867.7288208007812	521.5540771484374	-439.3563537597658	783.3643798828125	537.6872558593749	-399.7570190429689	765.7379150390625	468.4667053222656	
30	0.145	-281.6742248535158	1585.693359375	239.4173126220703	-332.5180053710939	1603.260375976562	305.7928466796874	-328.0411682128908	1609.91357421875	168.5780334472656	-497.9473876953127	1417.646728515625	219.8886260986327	-557.4518432617189	1252.562133789062	207.6202545166014	-567.2631225585939	1213.544189453125	185.1835174560546	-570.1783447265626	1204.78076171875	234.8492584228514	-564.4078369140626	1148.869018554688	199.0766754150389	-543.3861694335939	1081.910522460938	199.1630706787108	-573.3394165039064	1047.943969726562	182.6148986816405	-571.8636474609376	1045.673583984375	233.0559997558593	-579.2796020507814	985.8499145507812	204.0556488037108	-567.7293090820314	931.69677734375	187.8809661865233	-559.8290405273439	930.5400390625	238.6807861328124	-575.15625	870.8353881835938	214.0512084960936	-513.848876953125	657.9775390625	10.3305950164794	-560.11328125	607.36962890625	51.99327087402334	-521.535888671875	598.79296875	22.25642967224112	-644.6880493164062	379.8217468261718	11.29533863067615	-718.759765625	369.9666748046874	38.47027206420885	-684.2249145507812	334.6986389160156	25.64228439331042	-833.2962646484375	267.4462280273437	133.1130065917967	-795.4872436523438	59.95920944213862	133.4218292236327	-835.89892578125	86.30652618408197	38.47931289672836	-386.1069335937501	662.7813110351562	388.9179687499999	-312.5519409179689	632.5928344726562	388.8663940429687	-356.2418823242189	610.8018188476562	377.9636535644531	-307.4743347167969	329.79150390625	376.6588439941406	-264.7487487792969	264.1442260742188	368.6134948730468	-313.8452453613282	269.483642578125	363.2054443359374	-331.9884948730469	56.17391204833982	257.3252258300781	-117.403076171875	49.16365432739257	254.9472961425781	-166.0230407714844	36.69378662109374	357.5523986816406	-327.1155395507814	1315.226318359375	215.7522430419921	-313.4063110351564	1170.659912109375	207.1837158203124	-417.5311889648438	1389.55517578125	44.78541946411125	-412.8026123046876	1242.7373046875	-63.08567047119148	-421.1137084960938	1181.790161132812	-86.28683471679695	-375.9834899902344	1188.223754882812	-63.92872619628913	-333.3204345703126	992.2791748046875	-119.5494613647462	-337.6613464355469	915.2877197265625	-102.4550781250001	-297.7435607910157	942.425537109375	-116.1718750000001	-229.9843444824219	862.8527221679688	-110.5559234619141	-195.6619415283204	893.1105346679688	-46.71406936645511	-411.3770751953126	1360.056762695312	387.1246337890624	-440.0204467773439	1207.150024414062	477.9272766113281	-422.1799926757814	1143.301635742188	481.7131042480468	-470.7115783691408	1151.4736328125	495.820831298828	-463.3447875976564	931.4579467773438	518.8758544921874	-415.8944396972658	874.3018798828125	548.5398559570311	-457.6180419921877	868.505859375	521.9948120117186	-428.6086730957033	784.2891235351562	537.7719726562499	-389.4090576171877	766.930419921875	468.2120971679687	
31	0.15	-274.509002685547	1586.586181640625	240.2962188720703	-325.3035888671877	1604.158081054688	306.7069702148437	-320.8755493164064	1610.876342773438	169.4893188476562	-490.8643493652345	1418.572021484375	220.7304382324218	-550.2794799804689	1253.424072265625	208.4637451171874	-560.0545043945314	1214.42626953125	186.0148315429686	-562.9345092773439	1205.64111328125	235.6800079345702	-557.1563720703126	1149.74609375	199.8820190429686	-536.1032104492189	1082.810913085938	199.9997558593749	-566.1119995117189	1048.7734375	183.0441436767577	-564.7734985351564	1046.547607421875	233.4964904785155	-572.1134033203126	986.697998046875	204.5248107910155	-560.3397216796876	932.2222900390625	188.5860443115233	-552.5285034179689	931.2919921875	239.4107360839843	-567.81396484375	871.4735717773438	215.0092926025389	-502.8023986816407	657.2833251953125	10.40902423858633	-548.248046875	605.7980346679688	51.83164978027334	-509.6582336425782	597.965576171875	21.93950462341299	-631.0703735351562	381.5559997558593	10.33809757232654	-705.1029663085938	372.7650756835937	38.03290176391589	-671.1915283203125	337.0051574707031	24.88323402404773	-820.12548828125	273.0780639648437	133.1551666259764	-787.9854736328125	63.15186691284175	132.9435729980467	-828.7304077148438	91.63811492919916	38.89342880249009	-379.7611083984376	663.4151000976562	389.6665954589843	-306.7105712890626	632.5950317382812	389.0540771484374	-350.3467712402345	611.2435302734375	378.5397949218749	-304.1428527832032	329.9678955078125	376.7955322265624	-262.0726928710938	263.89208984375	368.4698791503906	-311.1856079101563	269.7080078125	363.3032226562499	-331.7854003906251	56.41930770874021	257.0768127441406	-116.9759902954102	48.4830207824707	254.7819671630859	-165.9836883544922	36.85235977172851	357.4247131347656	-319.936981201172	1316.36279296875	216.5528869628906	-306.2354736328126	1171.739135742188	207.9940185546874	-410.4713439941407	1390.581909179688	45.60714340209953	-406.1602478027344	1243.643920898438	-62.21885681152352	-414.7498168945313	1182.740966796875	-85.45433807373054	-369.6257324218751	1188.9111328125	-62.95403289794929	-328.8579406738282	992.3267822265625	-118.6517333984376	-334.2590026855469	915.4099731445312	-101.677360534668	-294.0044555664063	941.9571533203125	-115.5025177001954	-227.3699798583985	861.3988647460938	-110.3244934082032	-192.4908142089844	890.8351440429688	-46.4232215881348	-404.1166381835939	1361.2099609375	387.9021301269531	-431.8336181640627	1208.17578125	478.8439941406249	-413.5892333984377	1144.402099609375	482.3375244140624	-462.1123962402345	1152.318481445312	496.8317565917968	-453.5666503906252	932.2352905273438	519.4684448242186	-405.5527954101564	875.306640625	548.7234497070311	-447.4667358398439	869.343017578125	522.4546508789061	-417.7717895507814	785.2915649414062	537.8557128906249	-378.961883544922	768.2174072265625	467.9591674804687	
